<?xml version="1.0" encoding="utf-8"?>
<!-- Generator: Adobe Illustrator 23.0.0, SVG Export Plug-In . SVG Version: 6.00 Build 0)  -->
<svg version="1.1"
	 id="svg10" xmlns:cc="http://creativecommons.org/ns#" xmlns:dc="http://purl.org/dc/elements/1.1/" xmlns:rdf="http://www.w3.org/1999/02/22-rdf-syntax-ns#" xmlns:svg="http://www.w3.org/2000/svg"
	 xmlns="http://www.w3.org/2000/svg" xmlns:xlink="http://www.w3.org/1999/xlink" x="0px" y="0px" viewBox="0 0 23.88 15"
	 style="enable-background:new 0 0 23.88 15;" xml:space="preserve">
<style type="text/css">
	.st0{fill:#FFFFFF;}
</style>
<g>
	<path class="st0" d="M6.946,0C7.634,0,8.27,0.052,8.853,0.21c0.583,0.105,1.062,0.321,1.488,0.583
		c0.426,0.262,0.74,0.636,0.957,1.114c0.21,0.478,0.321,1.062,0.321,1.697c0,0.74-0.157,1.376-0.531,1.855
		C10.767,5.937,10.242,6.363,9.6,6.678c0.904,0.262,1.592,0.74,2.012,1.376S12.3,9.482,12.3,10.387c0,0.74-0.157,1.376-0.426,1.907
		c-0.262,0.531-0.688,1.009-1.166,1.324c-0.478,0.321-1.062,0.583-1.697,0.74c-0.636,0.157-1.271,0.262-1.907,0.262L0,14.633V0
		H6.946z M6.52,5.937c0.583,0,1.062-0.157,1.429-0.426C8.316,5.242,8.48,4.771,8.48,4.187c0-0.321-0.052-0.636-0.157-0.845
		C8.218,3.132,8.06,2.969,7.844,2.811c-0.21-0.105-0.426-0.21-0.688-0.262C6.894,2.497,6.625,2.497,6.311,2.497H3.237v3.447
		C3.237,5.937,6.52,5.937,6.52,5.937z M6.678,12.195c0.321,0,0.636-0.052,0.904-0.105c0.262-0.052,0.531-0.157,0.74-0.321
		s0.374-0.321,0.531-0.583c0.105-0.262,0.21-0.583,0.21-0.957c0-0.74-0.21-1.271-0.636-1.645C8.001,8.263,7.418,8.106,6.73,8.106
		H3.237v4.083h3.44V12.195z"/>
	<path class="st0" d="M16.913,12.143c0.426,0.426,1.062,0.636,1.907,0.636c0.583,0,1.114-0.157,1.54-0.426
		c0.426-0.321,0.688-0.636,0.793-0.957h2.595c-0.426,1.271-1.062,2.176-1.907,2.759C20.996,14.685,19.987,15,18.768,15
		c-0.845,0-1.592-0.157-2.28-0.426c-0.688-0.262-1.219-0.636-1.697-1.166c-0.478-0.478-0.845-1.062-1.062-1.75
		c-0.262-0.688-0.374-1.429-0.374-2.28c0-0.793,0.105-1.54,0.374-2.228c0.269-0.688,0.636-1.271,1.114-1.802
		c0.478-0.478,1.062-0.904,1.697-1.166c0.688-0.262,1.376-0.426,2.228-0.426c0.904,0,1.697,0.157,2.385,0.531
		c0.688,0.374,1.219,0.793,1.645,1.429c0.426,0.583,0.74,1.271,0.957,2.012c0.105,0.74,0.157,1.488,0.105,2.333h-7.687
		C16.173,10.924,16.488,11.717,16.913,12.143z M20.256,6.573c-0.374-0.374-0.957-0.583-1.645-0.583
		c-0.478,0-0.845,0.105-1.166,0.262c-0.321,0.157-0.531,0.374-0.74,0.583c-0.21,0.21-0.321,0.478-0.374,0.74
		c-0.052,0.262-0.105,0.478-0.105,0.688h4.771C20.891,7.477,20.623,6.946,20.256,6.573z M15.59,1.009h5.937v1.429H15.59V1.009z"/>
</g>
</svg>
