<?xml version="1.0" encoding="utf-8"?>
<!-- Generator: Adobe Illustrator 23.0.0, SVG Export Plug-In . SVG Version: 6.00 Build 0)  -->
<svg version="1.1" id="Layer_1" xmlns="http://www.w3.org/2000/svg" xmlns:xlink="http://www.w3.org/1999/xlink" x="0px" y="0px"
	 viewBox="0 0 15 15" style="enable-background:new 0 0 15 15;" xml:space="preserve">
<style type="text/css">
	.st0{fill:#FFFFFF;}
</style>
<g>
	<path class="st0" d="M7.5,1.351c2.003,0,2.24,0.008,3.031,0.044c0.731,0.033,1.128,0.156,1.393,0.258
		c0.326,0.12,0.62,0.312,0.862,0.561c0.249,0.242,0.441,0.537,0.561,0.862c0.103,0.264,0.225,0.661,0.258,1.393
		c0.036,0.791,0.044,1.028,0.044,3.031s-0.008,2.24-0.044,3.031c-0.033,0.731-0.156,1.128-0.258,1.393
		c-0.252,0.654-0.769,1.171-1.423,1.423c-0.264,0.103-0.661,0.225-1.393,0.258C9.74,13.641,9.503,13.649,7.5,13.649
		s-2.24-0.008-3.031-0.044c-0.731-0.033-1.128-0.156-1.393-0.258c-0.326-0.12-0.62-0.312-0.862-0.561
		c-0.249-0.242-0.441-0.537-0.561-0.862c-0.103-0.264-0.225-0.661-0.258-1.393C1.359,9.74,1.351,9.503,1.351,7.5
		s0.008-2.24,0.044-3.031c0.033-0.731,0.156-1.128,0.258-1.393c0.12-0.326,0.312-0.62,0.561-0.862
		c0.242-0.249,0.537-0.441,0.862-0.561c0.264-0.103,0.661-0.225,1.393-0.258C5.26,1.359,5.497,1.351,7.5,1.351 M7.5,0
		C5.463,0,5.208,0.009,4.408,0.045C3.61,0.082,3.064,0.208,2.587,0.394c-0.5,0.188-0.954,0.484-1.328,0.865
		C0.877,1.633,0.582,2.087,0.394,2.587C0.208,3.064,0.082,3.609,0.045,4.408C0.009,5.208,0,5.463,0,7.5s0.009,2.292,0.045,3.092
		c0.036,0.798,0.163,1.343,0.349,1.821c0.188,0.5,0.484,0.954,0.865,1.328c0.375,0.382,0.828,0.677,1.328,0.865
		c0.477,0.185,1.022,0.312,1.821,0.349C5.208,14.991,5.463,15,7.5,15s2.292-0.009,3.092-0.045c0.798-0.036,1.343-0.163,1.821-0.349
		c1.007-0.39,1.804-1.186,2.193-2.193c0.185-0.477,0.312-1.022,0.349-1.821C14.991,9.792,15,9.537,15,7.5s-0.009-2.292-0.045-3.092
		c-0.036-0.798-0.163-1.343-0.349-1.821c-0.188-0.5-0.484-0.954-0.865-1.328c-0.375-0.382-0.828-0.677-1.328-0.865
		c-0.477-0.185-1.022-0.312-1.821-0.348C9.792,0.009,9.537,0,7.5,0L7.5,0L7.5,0z"/>
	<path class="st0" d="M7.5,3.649c-2.127,0-3.851,1.724-3.851,3.851s1.724,3.851,3.851,3.851s3.851-1.724,3.851-3.851l0,0
		C11.351,5.373,9.627,3.649,7.5,3.649z M7.5,10C6.119,10,5,8.881,5,7.5S6.119,5,7.5,5C8.881,5,10,6.119,10,7.5
		C10,8.881,8.881,10,7.5,10z"/>
	<circle class="st0" cx="11.504" cy="3.496" r="0.9"/>
</g>
</svg>
